<?xml version="1.0" encoding="UTF-8"?>
<svg id="Layer_1" data-name="Layer 1" xmlns="http://www.w3.org/2000/svg" xmlns:xlink="http://www.w3.org/1999/xlink" viewBox="0 0 403 299">
  <defs>
    <radialGradient id="radial-gradient" cx="202" cy="150" fx="202" fy="150" r="105" gradientUnits="userSpaceOnUse">
      <stop offset="0" stop-color="#2675d8"/>
      <stop offset=".28" stop-color="#317dda"/>
      <stop offset=".78" stop-color="#428bde"/>
      <stop offset=".99" stop-color="#4b92e0"/>
    </radialGradient>
    <linearGradient id="linear-gradient" x1="198.43" y1="239.39" x2="201.51" y2="364.66" gradientUnits="userSpaceOnUse">
      <stop offset="0" stop-color="#e90d00"/>
      <stop offset=".06" stop-color="#e03000"/>
      <stop offset=".14" stop-color="#d75300"/>
      <stop offset=".23" stop-color="#cf7200"/>
      <stop offset=".32" stop-color="#c98a00"/>
      <stop offset=".42" stop-color="#c49d00"/>
      <stop offset=".54" stop-color="#c1aa00"/>
      <stop offset=".7" stop-color="#bfb200"/>
      <stop offset=".99" stop-color="#bfb500"/>
    </linearGradient>
  </defs>
  <rect y="-1" width="403" height="300" style="fill: #111116;"/>
  <circle cx="202" cy="150" r="105" style="fill: url(#radial-gradient);"/>
  <path d="M185,221h36c-1.18,12.93,.93,22.98,2.83,29.24,1.71,5.65,3.76,9.75,4.91,12.25,7.32,15.79,13.77,21.46,16.42,23.42,12.39,9.15,26.93,12.13,32.56,13.09H122.07c6.63-1,28.35-4.87,43.04-18.6,6.17-5.76,8.84-11.97,11.29-17.22,3.53-7.55,8.9-21.91,8.6-42.18Z" style="fill: url(#linear-gradient);"/>
  <g>
    <path d="M184.23,194.64V99.75c-.1-.89-.49-5.08,2.39-8.37,1.08-1.23,2.29-1.96,3.19-2.39,.43,.18,1.19,.54,1.99,1.2,3.76,3.06,3.49,8.55,3.42,9.57v120.81h-11.39l.4-25.92Z" style="fill: #f2f2f2;"/>
    <path d="M209.99,194.47V99.58c-.1-.89-.49-5.08,2.39-8.37,1.08-1.23,2.29-1.96,3.19-2.39,.43,.18,1.19,.54,1.99,1.2,3.76,3.06,3.49,8.55,3.42,9.57v120.81h-11.39l.4-25.92Z" style="fill: #f2f2f2;"/>
    <rect x="196.99" y="64.67" width="11.16" height="155.89" style="fill: #f2f2f2;"/>
    <path d="M210.54,36.76c-.24-2.01-1.12-6.96-5.18-10.37-.8-.67-1.61-1.19-2.39-1.59-1.07,.49-2.35,1.23-3.59,2.39-3.69,3.46-4.26,8.04-4.39,9.57v24.32h15.55v-24.32Z" style="fill: #f2f2f2;"/>
    <path d="M196.99,64.67c-.4-1.2-1.99-3.59-1.99-3.59h15.55l-2.39,3.59h-11.16Z" style="fill: #ccc;"/>
    <rect x="184.23" y="100.15" width="37.08" height="1.59" style="fill: #f2f2f2;"/>
    <rect x="183.83" y="102.94" width="11.96" height="4.39" style="fill: #f2f2f2;"/>
    <rect x="209.75" y="102.94" width="11.96" height="4.39" style="fill: #f2f2f2;"/>
    <g>
      <path d="M195,207c-1.73,2.66-3.46,5.32-5.18,7.97-1.86-2.66-3.72-5.32-5.58-7.97v13.56h10.76v-13.56Z" style="fill: #333;"/>
      <g>
        <circle cx="187.82" cy="216.17" r="1.2" style="fill: #999;"/>
        <circle cx="192.2" cy="216.17" r="1.2" style="fill: #999;"/>
      </g>
      <path d="M185.83,189.06c-.02-.07-.19-.69,0-.8,.15-.09,.52,.18,.9,.66,.33,3.86,.7,7.76,1.09,11.7,.41,4.13,.85,8.2,1.3,12.23,.17,.29,.49,.45,.8,.4,.35-.06,.51-.36,.53-.4,.48-3.88,.93-7.82,1.35-11.83,.44-4.18,.84-8.3,1.2-12.36,.32-.23,.68-.18,.8,0,.1,.15,.02,.36,0,.4,.02,3.68-.17,7.78-.69,12.23-.69,5.86-1.82,11.06-3.06,15.48-.33-.11-.66-.22-.98-.33-1.28-3.9-2.54-8.88-3.13-14.75-.48-4.8-.4-9.07-.11-12.63Z" style="fill: #333;"/>
      <path d="M183.83,217.37l.4-21.13c.4-2.26,.8-4.52,1.2-6.78,.15-.28,.28-.41,.4-.4,.18,.02,.31,.42,.4,1.2,1.06,9.17,2.13,18.34,3.19,27.51,0,.22-.18,.4-.4,.4s-.4-.18-.4-.4c-1.06-2.92-2.13-5.85-3.19-8.77-.19-.29-.33-.43-.4-.4-.09,.03-.09,.3,0,.8-.27,2.79-.53,5.58-.8,8.37l-.4-.14v-.26Z" style="fill: #666;"/>
      <path d="M195.79,217.3l-.4-21.13c-.4-2.26-.8-4.52-1.2-6.78-.15-.28-.28-.41-.4-.4-.18,.02-.31,.42-.4,1.2-1.06,9.17-2.13,18.34-3.19,27.51,0,.22,.18,.4,.4,.4s.4-.18,.4-.4c1.06-2.92,2.13-5.85,3.19-8.77,.19-.29,.33-.43,.4-.4,.09,.03,.09,.3,0,.8,.27,2.79,.53,5.58,.8,8.37l.4-.14v-.26Z" style="fill: #666;"/>
      <path d="M184.23,220.65l.8,.7v1.57h2.36c.01-.12,.02-.25,.03-.37h.4v.37h2.01c0-.12-.01-.25-.02-.37h.8c.01,.12,.02,.25,.03,.37h2.04c-.03-.12-.05-.25-.08-.37h.4c.05,.12,.1,.25,.15,.37h1.41l.03-1.57,.4-.8-10.76,.09Z" style="fill: #2a2821;"/>
      <rect x="183.83" y="217.77" width=".4" height="2.79" style="fill: #8d959b;"/>
      <rect x="195" y="217.77" width=".4" height="2.79" style="fill: #8d959b;"/>
    </g>
    <g>
      <path d="M207.78,206.92c-1.73,2.66-3.46,5.32-5.18,7.97-1.86-2.66-3.72-5.32-5.58-7.97v13.56h10.76v-13.56Z" style="fill: #333;"/>
      <g>
        <circle cx="200.6" cy="216.09" r="1.2" style="fill: #999;"/>
        <circle cx="204.99" cy="216.09" r="1.2" style="fill: #999;"/>
      </g>
      <path d="M198.61,188.98c-.02-.07-.19-.69,0-.8,.15-.09,.52,.18,.9,.66,.33,3.86,.7,7.76,1.09,11.7,.41,4.13,.85,8.2,1.3,12.23,.17,.29,.49,.45,.8,.4,.35-.06,.51-.36,.53-.4,.48-3.88,.93-7.82,1.35-11.83,.44-4.18,.84-8.3,1.2-12.36,.32-.23,.68-.18,.8,0,.1,.15,.02,.36,0,.4,.02,3.68-.17,7.78-.69,12.23-.69,5.86-1.82,11.06-3.06,15.48-.33-.11-.66-.22-.98-.33-1.28-3.9-2.54-8.88-3.13-14.75-.48-4.8-.4-9.07-.11-12.63Z" style="fill: #333;"/>
      <path d="M196.62,217.29l.4-21.13c.4-2.26,.8-4.52,1.2-6.78,.15-.28,.28-.41,.4-.4,.18,.02,.31,.42,.4,1.2,1.06,9.17,2.13,18.34,3.19,27.51,0,.22-.18,.4-.4,.4s-.4-.18-.4-.4c-1.06-2.92-2.13-5.85-3.19-8.77-.19-.29-.33-.43-.4-.4-.09,.03-.09,.3,0,.8-.27,2.79-.53,5.58-.8,8.37l-.4-.14v-.26Z" style="fill: #666;"/>
      <path d="M208.58,217.21l-.4-21.13c-.4-2.26-.8-4.52-1.2-6.78-.15-.28-.28-.41-.4-.4-.18,.02-.31,.42-.4,1.2-1.06,9.17-2.13,18.34-3.19,27.51,0,.22,.18,.4,.4,.4s.4-.18,.4-.4c1.06-2.92,2.13-5.85,3.19-8.77,.19-.29,.33-.43,.4-.4,.09,.03,.09,.3,0,.8,.27,2.79,.53,5.58,.8,8.37l.4-.14v-.26Z" style="fill: #666;"/>
      <path d="M197.01,220.57l.8,.7v1.57h2.36c.01-.12,.02-.25,.03-.37h.4v.37h2.01c0-.12-.01-.25-.02-.37h.8c.01,.12,.02,.25,.03,.37h2.04c-.03-.12-.05-.25-.08-.37h.4c.05,.12,.1,.25,.15,.37h1.41l.03-1.57,.4-.8-10.76,.09Z" style="fill: #2a2821;"/>
      <rect x="196.62" y="217.68" width=".4" height="2.79" style="fill: #8d959b;"/>
      <rect x="207.78" y="217.68" width=".4" height="2.79" style="fill: #8d959b;"/>
    </g>
    <g>
      <path d="M220.65,206.83c-1.73,2.66-3.46,5.32-5.18,7.97-1.86-2.66-3.72-5.32-5.58-7.97v13.56h10.76v-13.56Z" style="fill: #333;"/>
      <g>
        <circle cx="213.47" cy="216" r="1.2" style="fill: #999;"/>
        <circle cx="217.86" cy="216" r="1.2" style="fill: #999;"/>
      </g>
      <path d="M211.48,188.88c-.02-.07-.19-.69,0-.8,.15-.09,.52,.18,.9,.66,.33,3.86,.7,7.76,1.09,11.7,.41,4.13,.85,8.2,1.3,12.23,.17,.29,.49,.45,.8,.4,.35-.06,.51-.36,.53-.4,.48-3.88,.93-7.82,1.35-11.83,.44-4.18,.84-8.3,1.2-12.36,.32-.23,.68-.18,.8,0,.1,.15,.02,.36,0,.4,.02,3.68-.17,7.78-.69,12.23-.69,5.86-1.82,11.06-3.06,15.48-.33-.11-.66-.22-.98-.33-1.28-3.9-2.54-8.88-3.13-14.75-.48-4.8-.4-9.07-.11-12.63Z" style="fill: #333;"/>
      <path d="M209.48,217.19l.4-21.13c.4-2.26,.8-4.52,1.2-6.78,.15-.28,.28-.41,.4-.4,.18,.02,.31,.42,.4,1.2,1.06,9.17,2.13,18.34,3.19,27.51,0,.22-.18,.4-.4,.4s-.4-.18-.4-.4c-1.06-2.92-2.13-5.85-3.19-8.77-.19-.29-.33-.43-.4-.4-.09,.03-.09,.3,0,.8-.27,2.79-.53,5.58-.8,8.37l-.4-.14v-.26Z" style="fill: #666;"/>
      <path d="M221.44,217.12l-.4-21.13c-.4-2.26-.8-4.52-1.2-6.78-.15-.28-.28-.41-.4-.4-.18,.02-.31,.42-.4,1.2-1.06,9.17-2.13,18.34-3.19,27.51,0,.22,.18,.4,.4,.4s.4-.18,.4-.4c1.06-2.92,2.13-5.85,3.19-8.77,.19-.29,.33-.43,.4-.4,.09,.03,.09,.3,0,.8,.27,2.79,.53,5.58,.8,8.37l.4-.14v-.26Z" style="fill: #666;"/>
      <path d="M209.88,220.48l.8,.7v1.57h2.36c.01-.12,.02-.25,.03-.37h.4v.37h2.01c0-.12-.01-.25-.02-.37h.8c.01,.12,.02,.25,.03,.37h2.04c-.03-.12-.05-.25-.08-.37h.4c.05,.12,.1,.25,.15,.37h1.41l.03-1.57,.4-.8-10.76,.09Z" style="fill: #2a2821;"/>
      <rect x="209.48" y="217.59" width=".4" height="2.79" style="fill: #8d959b;"/>
      <rect x="220.65" y="217.59" width=".4" height="2.79" style="fill: #8d959b;"/>
    </g>
    <rect x="184.23" y="128.86" width="10.87" height=".4" style="fill: #b8bcbf;"/>
    <rect x="196.99" y="128.86" width="11.16" height=".4" style="fill: #b8bcbf;"/>
    <rect x="210.15" y="128.86" width="11.16" height=".4" style="fill: #b8bcbf;"/>
    <g>
      <path d="M205.36,125.03c-.06-.34-.31-.49-.88-.49h-4.03c-.42,0-.62,.13-.62,.4s.2,.41,.69,.44l4.27,.14c1.22,.04,1.64,.59,1.64,1.29s-.36,1.3-1.6,1.3h-4.14c-1.12,0-1.75-.38-1.88-.99l1-.42c.06,.39,.31,.54,.88,.54h4.14c.46,0,.67-.13,.67-.42,0-.31-.22-.4-.71-.42l-4.27-.14c-1.23-.04-1.62-.63-1.62-1.29s.36-1.29,1.6-1.29h3.98c1.12,0,1.75,.38,1.88,.99l-1,.37Z"/>
      <path d="M204.58,135.49c1.49,0,1.94,.67,1.94,1.54h0c0,.86-.45,1.54-1.94,1.54h-4.32v1.06h-.98v-4.13h5.3Zm.96,1.54c0-.42-.23-.65-.96-.65h-4.32v1.31h4.32c.73,0,.96-.23,.96-.65h0Z"/>
      <path d="M206.12,159.2c-.27-.3-.69-.34-1.33-.34h-3.35c-.97,0-1.47,.37-1.47,1.2h0c0,.83,.5,1.2,1.47,1.2h3.35c.64,0,1.06-.04,1.33-.34l.63,.7c-.44,.42-.98,.54-1.95,.54h-3.35c-1.58,0-2.46-.71-2.46-2.09h0c0-1.4,.88-2.11,2.46-2.11h3.35c.98,0,1.51,.12,1.95,.54l-.63,.7Z"/>
      <path d="M206.15,169.92v.82h-5.85v.86h5.34v.78h-5.34v.84h5.85v.82h-6.83v-4.12h6.83Z"/>
      <polygon points="203.08 146.88 202.49 147.53 203.8 149.03 201.15 149.03 200.43 149.84 204.5 149.84 205.23 150.68 206.4 150.68 203.08 146.88"/>
    </g>
    <path d="M203.73,183.45l2.83,2.02h-1.48l-2.13-1.51-2.11,1.51h-1.49l2.81-2.02-2.81-2.09h1.49l2.11,1.56c1.73-1.14,3.47-2.29,5.2-3.43v.8c-1.47,1.05-2.95,2.11-4.42,3.16Z"/>
    <rect x="196.99" y="79.02" width="11.16" height=".4" style="fill: #b8bcbf;"/>
    <rect x="184.23" y="99.75" width="11.16" height=".4" style="fill: #b8bcbf;"/>
    <rect x="210.44" y="99.75" width="10.87" height=".4" style="fill: #b8bcbf;"/>
  </g>
</svg>